# xmcd
# Track frame offsets:
# 150
# 16307
# 28830
# 46607
# 59082
# 73965
# 85460
# 97182
# 112320
# 125587
# 137317
# 155547
# 172297
# 187550
# 201567
# 214312
#
# Disc length: 3035 seconds
# Revision: 0
# Processed by: cddbd v1.4PL0 Copyright (c) Steve Scherf et al.
# Submitted via: VisiTrax 2.9.5.180 - For more info visit www.synapsa.com
#
DISCID=f70bd910
DTITLE=Peregrine Way - Get down and Country
DYEAR=1996
DGENRE=Country-pop
TTITLE0=Better days
TTITLE1=Houtchie coutchie
TTITLE2=The crying game
TTITLE3=Born to die young
TTITLE4=Baby bayou
TTITLE5=The rain
TTITLE6=911
TTITLE7=Honky tonk angel
TTITLE8=No friend of mine
TTITLE9=Dr. Love
TTITLE10=Forever
TTITLE11=Hair of the dog
TTITLE12=War and Passion
TTITLE13=Ghost of time
TTITLE14=Key to my heart
TTITLE15=Get down and country
EXTD=
EXTT0=
EXTT1=
EXTT2=
EXTT3=
EXTT4=
EXTT5=
EXTT6=
EXTT7=
EXTT8=
EXTT9=
EXTT10=
EXTT11=
EXTT12=
EXTT13=
EXTT14=
EXTT15=
PLAYORDER=
